Coordinates
version=1
nRows=50
nColumns=16
inDegrees=yes
endheader
time	elbow_flexion_r	elbow_flexion_l	shoulder_elv_r	shoulder_elv_l	elv_angle_r	elv_angle_l	shoulder_rot_r	shoulder_rot_l	pro_sup_r	pro_sup_l	hip_flexion_r	hip_flexion_l	knee_angle_r	knee_angle_l	lumbar_extension
0.000000	10.000000	10.000000	10.000000	10.000000	0.000000	0.000000	0.000000	0.000000	40.000000	40.000000	90.000000	90.000000	90.000000	90.000000	0.000000
0.040816	12.755102	12.755102	10.000000	10.000000	0.000000	0.000000	0.000000	0.000000	40.000000	40.000000	90.000000	90.000000	90.000000	90.000000	0.000000
0.081633	15.510204	15.510204	10.000000	10.000000	0.000000	0.000000	0.000000	0.000000	40.000000	40.000000	90.000000	90.000000	90.000000	90.000000	0.000000
0.122449	18.265306	18.265306	10.000000	10.000000	0.000000	0.000000	0.000000	0.000000	40.000000	40.000000	90.000000	90.000000	90.000000	90.000000	0.000000
0.163265	21.020408	21.020408	10.000000	10.000000	0.000000	0.000000	0.000000	0.000000	40.000000	40.000000	90.000000	90.000000	90.000000	90.000000	0.000000
0.204082	23.775510	23.775510	10.000000	10.000000	0.000000	0.000000	0.000000	0.000000	40.000000	40.000000	90.000000	90.000000	90.000000	90.000000	0.000000
0.244898	26.530612	26.530612	10.000000	10.000000	0.000000	0.000000	0.000000	0.000000	40.000000	40.000000	90.000000	90.000000	90.000000	90.000000	0.000000
0.285714	29.285714	29.285714	10.000000	10.000000	0.000000	0.000000	0.000000	0.000000	40.000000	40.000000	90.000000	90.000000	90.000000	90.000000	0.000000
0.326531	32.040816	32.040816	10.000000	10.000000	0.000000	0.000000	0.000000	0.000000	40.000000	40.000000	90.000000	90.000000	90.000000	90.000000	0.000000
0.367347	34.795918	34.795918	10.000000	10.000000	0.000000	0.000000	0.000000	0.000000	40.000000	40.000000	90.000000	90.000000	90.000000	90.000000	0.000000
0.408163	37.551020	37.551020	10.000000	10.000000	0.000000	0.000000	0.000000	0.000000	40.000000	40.000000	90.000000	90.000000	90.000000	90.000000	0.000000
0.448980	40.306122	40.306122	10.000000	10.000000	0.000000	0.000000	0.000000	0.000000	40.000000	40.000000	90.000000	90.000000	90.000000	90.000000	0.000000
0.489796	43.061224	43.061224	10.000000	10.000000	0.000000	0.000000	0.000000	0.000000	40.000000	40.000000	90.000000	90.000000	90.000000	90.000000	0.000000
0.530612	45.816327	45.816327	10.000000	10.000000	0.000000	0.000000	0.000000	0.000000	40.000000	40.000000	90.000000	90.000000	90.000000	90.000000	0.000000
0.571429	48.571429	48.571429	10.000000	10.000000	0.000000	0.000000	0.000000	0.000000	40.000000	40.000000	90.000000	90.000000	90.000000	90.000000	0.000000
0.612245	51.326531	51.326531	10.000000	10.000000	0.000000	0.000000	0.000000	0.000000	40.000000	40.000000	90.000000	90.000000	90.000000	90.000000	0.000000
0.653061	54.081633	54.081633	10.000000	10.000000	0.000000	0.000000	0.000000	0.000000	40.000000	40.000000	90.000000	90.000000	90.000000	90.000000	0.000000
0.693878	56.836735	56.836735	10.000000	10.000000	0.000000	0.000000	0.000000	0.000000	40.000000	40.000000	90.000000	90.000000	90.000000	90.000000	0.000000
0.734694	59.591837	59.591837	10.000000	10.000000	0.000000	0.000000	0.000000	0.000000	40.000000	40.000000	90.000000	90.000000	90.000000	90.000000	0.000000
0.775510	62.346939	62.346939	10.000000	10.000000	0.000000	0.000000	0.000000	0.000000	40.000000	40.000000	90.000000	90.000000	90.000000	90.000000	0.000000
0.816327	65.102041	65.102041	10.000000	10.000000	0.000000	0.000000	0.000000	0.000000	40.000000	40.000000	90.000000	90.000000	90.000000	90.000000	0.000000
0.857143	67.857143	67.857143	10.000000	10.000000	0.000000	0.000000	0.000000	0.000000	40.000000	40.000000	90.000000	90.000000	90.000000	90.000000	0.000000
0.897959	70.612245	70.612245	10.000000	10.000000	0.000000	0.000000	0.000000	0.000000	40.000000	40.000000	90.000000	90.000000	90.000000	90.000000	0.000000
0.938776	73.367347	73.367347	10.000000	10.000000	0.000000	0.000000	0.000000	0.000000	40.000000	40.000000	90.000000	90.000000	90.000000	90.000000	0.000000
0.979592	76.122449	76.122449	10.000000	10.000000	0.000000	0.000000	0.000000	0.000000	40.000000	40.000000	90.000000	90.000000	90.000000	90.000000	0.000000
1.020408	78.877551	78.877551	10.000000	10.000000	0.000000	0.000000	0.000000	0.000000	40.000000	40.000000	90.000000	90.000000	90.000000	90.000000	0.000000
1.061224	81.632653	81.632653	10.000000	10.000000	0.000000	0.000000	0.000000	0.000000	40.000000	40.000000	90.000000	90.000000	90.000000	90.000000	0.000000
1.102041	84.387755	84.387755	10.000000	10.000000	0.000000	0.000000	0.000000	0.000000	40.000000	40.000000	90.000000	90.000000	90.000000	90.000000	0.000000
1.142857	87.142857	87.142857	10.000000	10.000000	0.000000	0.000000	0.000000	0.000000	40.000000	40.000000	90.000000	90.000000	90.000000	90.000000	0.000000
1.183673	89.897959	89.897959	10.000000	10.000000	0.000000	0.000000	0.000000	0.000000	40.000000	40.000000	90.000000	90.000000	90.000000	90.000000	0.000000
1.224490	92.653061	92.653061	10.000000	10.000000	0.000000	0.000000	0.000000	0.000000	40.000000	40.000000	90.000000	90.000000	90.000000	90.000000	0.000000
1.265306	95.408163	95.408163	10.000000	10.000000	0.000000	0.000000	0.000000	0.000000	40.000000	40.000000	90.000000	90.000000	90.000000	90.000000	0.000000
1.306122	98.163265	98.163265	10.000000	10.000000	0.000000	0.000000	0.000000	0.000000	40.000000	40.000000	90.000000	90.000000	90.000000	90.000000	0.000000
1.346939	100.918367	100.918367	10.000000	10.000000	0.000000	0.000000	0.000000	0.000000	40.000000	40.000000	90.000000	90.000000	90.000000	90.000000	0.000000
1.387755	103.673469	103.673469	10.000000	10.000000	0.000000	0.000000	0.000000	0.000000	40.000000	40.000000	90.000000	90.000000	90.000000	90.000000	0.000000
1.428571	106.428571	106.428571	10.000000	10.000000	0.000000	0.000000	0.000000	0.000000	40.000000	40.000000	90.000000	90.000000	90.000000	90.000000	0.000000
1.469388	109.183673	109.183673	10.000000	10.000000	0.000000	0.000000	0.000000	0.000000	40.000000	40.000000	90.000000	90.000000	90.000000	90.000000	0.000000
1.510204	111.938776	111.938776	10.000000	10.000000	0.000000	0.000000	0.000000	0.000000	40.000000	40.000000	90.000000	90.000000	90.000000	90.000000	0.000000
1.551020	114.693878	114.693878	10.000000	10.000000	0.000000	0.000000	0.000000	0.000000	40.000000	40.000000	90.000000	90.000000	90.000000	90.000000	0.000000
1.591837	117.448980	117.448980	10.000000	10.000000	0.000000	0.000000	0.000000	0.000000	40.000000	40.000000	90.000000	90.000000	90.000000	90.000000	0.000000
1.632653	120.204082	120.204082	10.000000	10.000000	0.000000	0.000000	0.000000	0.000000	40.000000	40.000000	90.000000	90.000000	90.000000	90.000000	0.000000
1.673469	122.959184	122.959184	10.000000	10.000000	0.000000	0.000000	0.000000	0.000000	40.000000	40.000000	90.000000	90.000000	90.000000	90.000000	0.000000
1.714286	125.714286	125.714286	10.000000	10.000000	0.000000	0.000000	0.000000	0.000000	40.000000	40.000000	90.000000	90.000000	90.000000	90.000000	0.000000
1.755102	128.469388	128.469388	10.000000	10.000000	0.000000	0.000000	0.000000	0.000000	40.000000	40.000000	90.000000	90.000000	90.000000	90.000000	0.000000
1.795918	131.224490	131.224490	10.000000	10.000000	0.000000	0.000000	0.000000	0.000000	40.000000	40.000000	90.000000	90.000000	90.000000	90.000000	0.000000
1.836735	133.979592	133.979592	10.000000	10.000000	0.000000	0.000000	0.000000	0.000000	40.000000	40.000000	90.000000	90.000000	90.000000	90.000000	0.000000
1.877551	136.734694	136.734694	10.000000	10.000000	0.000000	0.000000	0.000000	0.000000	40.000000	40.000000	90.000000	90.000000	90.000000	90.000000	0.000000
1.918367	139.489796	139.489796	10.000000	10.000000	0.000000	0.000000	0.000000	0.000000	40.000000	40.000000	90.000000	90.000000	90.000000	90.000000	0.000000
1.959184	142.244898	142.244898	10.000000	10.000000	0.000000	0.000000	0.000000	0.000000	40.000000	40.000000	90.000000	90.000000	90.000000	90.000000	0.000000
2.000000	145.000000	145.000000	10.000000	10.000000	0.000000	0.000000	0.000000	0.000000	40.000000	40.000000	90.000000	90.000000	90.000000	90.000000	0.000000
